<svg xmlns="http://www.w3.org/2000/svg" width="1020" height="330" viewBox="0 0 1020 330">
<rect x="0" y="0" width="1020" height="330" fill="white"/>
<text x="170" y="24" text-anchor="middle" font-family="sans-serif" font-size="16">Operands</text>
<svg x="0" y="35" width="340" height="290" viewBox="-14.399999999999999 -14.399999999999999 148.80000000000001 128.80000000000001">
<path d="M 0 0 H 120 V 100 H 0 Z M 30 22 H 90 V 78 H 30 Z" style="fill:#bfdbfe;fill-opacity:.55;stroke:#2563eb;stroke-width:1;fill-rule:nonzero"/>
<path d="M 42 32 H 78 V 68 H 42 Z" style="fill:#fed7aa;fill-opacity:.55;stroke:#c2410c;stroke-width:1;fill-rule:nonzero"/>
</svg>
<text x="510" y="24" text-anchor="middle" font-family="sans-serif" font-size="16">Arrangement</text>
<svg x="340" y="35" width="340" height="290" viewBox="-14.399999999999999 -14.399999999999999 148.80000000000001 128.80000000000001">
<path d="M 0 0 H 120" style="fill:none;stroke:#334155;stroke-width:0.65000000000000002;stroke-linejoin:round"/>
<path d="M 120 0 V 100" style="fill:none;stroke:#334155;stroke-width:0.65000000000000002;stroke-linejoin:round"/>
<path d="M 120 100 H 0" style="fill:none;stroke:#334155;stroke-width:0.65000000000000002;stroke-linejoin:round"/>
<path d="M 0 100 V 0" style="fill:none;stroke:#334155;stroke-width:0.65000000000000002;stroke-linejoin:round"/>
<path d="M 30 22 H 90" style="fill:none;stroke:#334155;stroke-width:0.65000000000000002;stroke-linejoin:round"/>
<path d="M 90 22 V 78" style="fill:none;stroke:#334155;stroke-width:0.65000000000000002;stroke-linejoin:round"/>
<path d="M 90 78 H 30" style="fill:none;stroke:#334155;stroke-width:0.65000000000000002;stroke-linejoin:round"/>
<path d="M 30 78 V 22" style="fill:none;stroke:#334155;stroke-width:0.65000000000000002;stroke-linejoin:round"/>
<path d="M 42 32 H 78" style="fill:none;stroke:#334155;stroke-width:0.65000000000000002;stroke-linejoin:round"/>
<path d="M 78 32 V 68" style="fill:none;stroke:#334155;stroke-width:0.65000000000000002;stroke-linejoin:round"/>
<path d="M 78 68 H 42" style="fill:none;stroke:#334155;stroke-width:0.65000000000000002;stroke-linejoin:round"/>
<path d="M 42 68 V 32" style="fill:none;stroke:#334155;stroke-width:0.65000000000000002;stroke-linejoin:round"/>
</svg>
<text x="850" y="24" text-anchor="middle" font-family="sans-serif" font-size="16">Result</text>
<svg x="680" y="35" width="340" height="290" viewBox="-14.399999999999999 -14.399999999999999 148.80000000000001 128.80000000000001">
<path d="M 0 0 H 120 V 100 H 0 Z M 30 22 H 90 V 78 H 30 Z M 42 32 H 78 V 68 H 42 Z" style="fill:none;stroke:none"/>
<path d="M 0 0 H 120 V 100 H 0 Z M 78 32 H 42 V 68 H 78 Z" style="fill:#bbf7d0;stroke:#14532d;stroke-width:1;stroke-linejoin:round"/>
</svg>
</svg>
