<svg xmlns="http://www.w3.org/2000/svg" width="1020" height="330" viewBox="0 0 1020 330">
<rect x="0" y="0" width="1020" height="330" fill="white"/>
<text x="170" y="24" text-anchor="middle" font-family="sans-serif" font-size="16">Operands</text>
<svg x="0" y="35" width="340" height="290" viewBox="-14.399999999999999 -14.399999999999999 148.80000000000001 108.8">
<path d="M 0 0 H 80 V 80 H 0 Z" style="fill:#bfdbfe;fill-opacity:.55;stroke:#2563eb;stroke-width:1;fill-rule:nonzero"/>
<path d="M 40 0 H 120 V 80 H 40 Z" style="fill:#fed7aa;fill-opacity:.55;stroke:#c2410c;stroke-width:1;fill-rule:nonzero"/>
</svg>
<text x="510" y="24" text-anchor="middle" font-family="sans-serif" font-size="16">Arrangement</text>
<svg x="340" y="35" width="340" height="290" viewBox="-14.399999999999999 -14.399999999999999 148.80000000000001 108.8">
<path d="M 0 0 H 40" style="fill:none;stroke:#334155;stroke-width:0.65000000000000002;stroke-linejoin:round"/>
<path d="M 40 0 H 80" style="fill:none;stroke:#334155;stroke-width:0.65000000000000002;stroke-linejoin:round"/>
<path d="M 80 0 V 80" style="fill:none;stroke:#334155;stroke-width:0.65000000000000002;stroke-linejoin:round"/>
<path d="M 80 80 H 40" style="fill:none;stroke:#334155;stroke-width:0.65000000000000002;stroke-linejoin:round"/>
<path d="M 40 80 H 0" style="fill:none;stroke:#334155;stroke-width:0.65000000000000002;stroke-linejoin:round"/>
<path d="M 0 80 V 0" style="fill:none;stroke:#334155;stroke-width:0.65000000000000002;stroke-linejoin:round"/>
<path d="M 80 0 H 120" style="fill:none;stroke:#334155;stroke-width:0.65000000000000002;stroke-linejoin:round"/>
<path d="M 120 0 V 80" style="fill:none;stroke:#334155;stroke-width:0.65000000000000002;stroke-linejoin:round"/>
<path d="M 120 80 H 80" style="fill:none;stroke:#334155;stroke-width:0.65000000000000002;stroke-linejoin:round"/>
<path d="M 40 80 V 0" style="fill:none;stroke:#334155;stroke-width:0.65000000000000002;stroke-linejoin:round"/>
</svg>
<text x="850" y="24" text-anchor="middle" font-family="sans-serif" font-size="16">Result</text>
<svg x="680" y="35" width="340" height="290" viewBox="-14.399999999999999 -14.399999999999999 148.80000000000001 108.8">
<path d="M 0 0 H 80 V 80 H 0 Z M 40 0 H 120 V 80 H 40 Z" style="fill:none;stroke:none"/>
<path d="M 80 0 V 80 H 40 V 0 Z" style="fill:#bbf7d0;stroke:#14532d;stroke-width:1;stroke-linejoin:round"/>
</svg>
</svg>
