<svg xmlns="http://www.w3.org/2000/svg" width="1020" height="330" viewBox="0 0 1020 330">
<rect x="0" y="0" width="1020" height="330" fill="white"/>
<text x="170" y="24" text-anchor="middle" font-family="sans-serif" font-size="16">Operands</text>
<svg x="0" y="35" width="340" height="290" viewBox="-2 -12 119 124">
<path d="M 100 50 A 45 45 0 0 1 10 50 A 45 45 0 0 1 100 50 Z" style="fill:#bfdbfe;fill-opacity:.55;stroke:#2563eb;stroke-width:1;fill-rule:nonzero"/>
<path d="M 45 0 H 105 V 100 H 45 Z" style="fill:#fed7aa;fill-opacity:.55;stroke:#c2410c;stroke-width:1;fill-rule:nonzero"/>
</svg>
<text x="510" y="24" text-anchor="middle" font-family="sans-serif" font-size="16">Arrangement</text>
<svg x="340" y="35" width="340" height="290" viewBox="-2 -12 119 124">
<path d="M 100 50 A 45 45 0 0 1 45 93.87482" style="fill:none;stroke:#334155;stroke-width:0.65000000000000002;stroke-linejoin:round"/>
<path d="M 45 93.87482 A 45 45 0 0 1 10 50" style="fill:none;stroke:#334155;stroke-width:0.65000000000000002;stroke-linejoin:round"/>
<path d="M 10 50 A 45 45 0 0 1 45 6.12518" style="fill:none;stroke:#334155;stroke-width:0.65000000000000002;stroke-linejoin:round"/>
<path d="M 45 6.12518 A 45 45 0 0 1 100 50" style="fill:none;stroke:#334155;stroke-width:0.65000000000000002;stroke-linejoin:round"/>
<path d="M 45 0 H 105" style="fill:none;stroke:#334155;stroke-width:0.65000000000000002;stroke-linejoin:round"/>
<path d="M 105 0 V 100" style="fill:none;stroke:#334155;stroke-width:0.65000000000000002;stroke-linejoin:round"/>
<path d="M 105 100 H 45" style="fill:none;stroke:#334155;stroke-width:0.65000000000000002;stroke-linejoin:round"/>
<path d="M 45 100 V 93.87482" style="fill:none;stroke:#334155;stroke-width:0.65000000000000002;stroke-linejoin:round"/>
<path d="M 45 93.87482 V 6.12518" style="fill:none;stroke:#334155;stroke-width:0.65000000000000002;stroke-linejoin:round"/>
<path d="M 45 6.12518 V 0" style="fill:none;stroke:#334155;stroke-width:0.65000000000000002;stroke-linejoin:round"/>
</svg>
<text x="850" y="24" text-anchor="middle" font-family="sans-serif" font-size="16">Result</text>
<svg x="680" y="35" width="340" height="290" viewBox="-2 -12 119 124">
<path d="M 100 50 A 45 45 0 0 1 10 50 A 45 45 0 0 1 100 50 Z M 45 0 H 105 V 100 H 45 Z" style="fill:none;stroke:none"/>
<path d="M 10 50 A 45 45 0 0 1 45 6.12518 V 93.87482 A 45 45 0 0 1 10 50 Z" style="fill:#bbf7d0;stroke:#14532d;stroke-width:1;stroke-linejoin:round"/>
</svg>
</svg>
